<?xml version="1.0" standalone="no"?><!DOCTYPE svg PUBLIC "-//W3C//DTD SVG 1.1//EN" "http://www.w3.org/Graphics/SVG/1.1/DTD/svg11.dtd"><svg class="icon" width="200px" height="200.00px" viewBox="0 0 1024 1024" version="1.1" xmlns="http://www.w3.org/2000/svg"><path d="M8.087485 516.982323C4.977071 234.556778 228.304759 3.142015 506.997807 0.031602c278.070965-3.110413 506.375315 223.949771 508.863646 506.997397 3.110413 282.425544-220.217275 514.46239-498.910323 516.950721-278.070965 2.488331-505.753232-223.949771-508.863645-506.997397" fill="#515587" /><path d="M812.440411 738.443762c0 18.662481-14.929985 33.592466-33.592465 33.592466h-503.886984c-18.662481 0-33.592466-14.929985-33.592466-33.592466V268.149244c0-18.662481 14.929985-33.592466 33.592466-33.592466h503.886984c18.662481 0 33.592466 14.929985 33.592465 33.592466v470.294518z" fill="#AD7F49" /><path d="M255.676398 268.149244h513.218225v479.625759H255.676398z" fill="#916933" /><path d="M281.803871 274.370071h490.823248v457.852864H281.803871z" fill="#232020" /><path d="M296.733856 288.05589h460.963278v429.859143H296.733856z" fill="#2B3642" /><path d="M553.031927 679.967989h171.694824v37.324962H553.031927z" fill="#C9C9C9" /><path d="M553.031927 679.967989h171.694824v26.127473H553.031927z" fill="#DFDFDF" /><path d="M500.154898 375.76955c-23.639142 64.6966-18.040398 115.707382 37.324961 161.119419-60.342022 12.441654-92.068239-130.015284-37.324961-161.119419zM401.865832 498.941924c-5.598744 0-5.598744-4.354579-21.150812 5.598745-2.488331-14.929985 17.418315-26.127473 18.040398-23.01706 12.441654-31.104135-18.040398-101.39948 45.412037-102.643645-30.482052 14.929985-34.214548 31.726218-29.237887 82.114916 8.709158 10.575406 35.458714-9.953323 37.947045 12.441654-2.488331 3.732496 1.244165 8.087075-36.080797 15.552067 13.685819 39.813293 8.709158 81.492833-13.685819 98.911149 3.732496-23.01706 9.33124-54.121195-1.244165-88.957826zM604.042708 358.973318c75.272006-17.418315 90.201991 120.06196 29.237887 151.788178 16.17415-26.749556 42.923706-84.603247 12.441654-123.172374-9.953323-13.063737-20.528729-15.552067-41.679541-28.615804zM561.741085 456.018218c-5.598744-1.866248-9.953323-8.709158-14.307902-12.441654-6.84291-5.598744-13.063737-8.709158-16.796233-19.284563 15.552067-0.622083 27.993721 3.732496 37.947044 12.441654 9.953323-7.464992 11.197489-20.528729 27.993722-24.261225 3.732496 15.552067-6.84291 23.01706-14.307902 32.3483 11.197489 14.929985 29.237887 16.796233 37.947044 35.458713-18.662481-1.244165-26.127473-10.575406-46.034119-21.772894-5.598744 14.929985-16.796233 26.749556-23.639143 40.435375-8.709158-3.732496 9.33124-29.859969 11.197489-42.923706z" fill="#FFFFFF" /></svg>