<?xml version="1.0" standalone="no"?><!DOCTYPE svg PUBLIC "-//W3C//DTD SVG 1.1//EN" "http://www.w3.org/Graphics/SVG/1.1/DTD/svg11.dtd"><svg class="icon" width="200px" height="200.00px" viewBox="0 0 1024 1024" version="1.1" xmlns="http://www.w3.org/2000/svg"><path d="MNaN NaNaNaN NaN NaN 1 0 NaN NaN NaN NaN NaN 1 0 NaN NaNZ" fill="#9A8EE6" /><path d="M110.299805 790.657772a400.705504 9.924595 0 1 0 801.411008 0 400.705504 9.924595 0 1 0-801.411008 0Z"  /><path d="M620.175849 777.631741H400.594195c19.849189-11.785456 13.646317-11.785456 17.988327-34.73608v-73.814172h177.402127c0 76.29532-5.582584 96.144509 24.1912 108.550252z" fill="#C7C7C7" /><path d="M414.860799 692.652401l198.491891 84.97934s-19.228902-17.988328-19.228902-37.217229V677.765509c-52.104121-48.382398-179.262989 14.886892-179.262989 14.886892z" fill="#6E6E6E" /><path d="M826.111185 672.182925c0 14.266605-11.165169 25.431773-25.431773 25.431773H220.090632c-14.266605 0-25.431773-11.165169-25.431774-25.431773V305.593214h630.83204v366.589711z" fill="#D4D4D4" /><path d="M826.111185 618.838229H195.279145v-365.969423c0-14.266605 11.165169-25.431773 25.431774-25.431774h580.58878c14.266605 0 25.431773 11.165169 25.431773 25.431774v365.969423z" fill="#3F3F3F" /><path d="M219.470345 262.173113H801.919986v322.549322H219.470345z" fill="#3498DD" /><path d="M803.16056 263.413688H218.850057v37.217229h1.240575v12.405743H801.919986v-12.405743h1.240574z" fill="#34A6DD" /><path d="M510.385022 657.91632m-18.608615 0a18.608615 18.608615 0 1 0 37.217229 0 18.608615 18.608615 0 1 0-37.217229 0Z" fill="#7B716B" /><path d="M639.40475 786.936049H374.542134c0-9.924595 8.063733-18.608615 18.608615-18.608615h228.265674c9.924595 0.620287 17.988328 8.68402 17.988327 18.608615z" fill="#BFBFBF" /><path d="M244.281831 342.810444h240.671417v194.770167H244.281831z" fill="#348CDD" /><path d="M280.878773 378.787099v122.816857h167.477533V378.787099H280.878773z m8.063733 10.544882h151.350067v101.727094h-3.721723l-29.153497-35.976656-21.089763 26.672348-37.837517-46.521537-44.040388 55.205557 11.785456 0.620288h-27.292635V389.331981z" fill="#FFFEFF" /><path d="M311.272844 423.447774m-11.165169 0a11.165169 11.165169 0 1 0 22.330338 0 11.165169 11.165169 0 1 0-22.330338 0Z" fill="#FFFEFF" /><path d="M531.474785 345.291592h245.013427v7.443446H531.474785zM531.474785 380.64796h245.013427v7.443446H531.474785zM553.805123 416.004328h200.352752V423.447774H553.805123zM566.210866 451.360696h174.920978v7.443446H566.210866zM566.210866 486.717064h174.920978v7.443446H566.210866z" fill="#FFFEFF" /><path d="M605.288957 514.009699H702.674041v22.330338H605.288957z" fill="#FEBD49" /><path d="M243.661544 286.9846m-9.924595 0a9.924595 9.924595 0 1 0 19.849189 0 9.924595 9.924595 0 1 0-19.849189 0Z" fill="#FFFFFF" /><path d="M285.841071 286.9846m-9.924595 0a9.924595 9.924595 0 1 0 19.849189 0 9.924595 9.924595 0 1 0-19.849189 0Z" fill="#EE4235" /><path d="M327.40031 286.9846m-9.924594 0a9.924595 9.924595 0 1 0 19.849189 0 9.924595 9.924595 0 1 0-19.849189 0Z" fill="#FE9F49" /><path d="M903.026793 784.4549c0 5.582584-4.962297 10.544882-10.544882 10.544882h-248.114863c-5.582584 0-10.544882-4.962297-10.544882-10.544882V461.285291c0-4.962297 3.721723-8.68402 8.68402-8.68402h251.836586c4.962297 0 8.68402 3.721723 8.684021 8.68402v323.169609z" fill="#E0E0E0" /><path d="M660.494514 479.273619H876.354445v280.369795h-215.859931z" fill="#3498DD" /><path d="M768.424479 776.391167m-9.924594 0a9.924595 9.924595 0 1 0 19.849189 0 9.924595 9.924595 0 1 0-19.849189 0Z" fill="#808080" /><path d="M285.220783 521.453145L392.530462 696.374124l-117.85456 1.860861z" fill="#6E6E6E" /><path d="M295.145378 793.13892c0 9.924595-8.063733 18.608615-18.608615 18.608615H167.986511c-9.924595 0-18.608615-8.063733-18.608615-18.608615v-254.317734c0-9.924595 8.063733-18.608615 18.608615-18.608615h109.170539c9.924595 0 18.608615 8.063733 18.608615 18.608615v254.317734z" fill="#E0E0E0" /><path d="M161.783639 561.151523h120.955996v211.517921H161.783639z" fill="#3498DD" /><path d="M222.57178 790.037485m-11.165168 0a11.165169 11.165169 0 1 0 22.330337 0 11.165169 11.165169 0 1 0-22.330337 0Z" fill="#808080" /><path d="M196.51972 545.644344h53.964983v6.202872h-53.964983z" fill="#808080" /><path d="M691.508872 502.224243h156.932651v126.538581h-156.932651z" fill="#348CDD" /><path d="M715.700071 525.795155v80.017044h109.17054V525.795155h-109.17054z m4.962297 6.202872h98.625658v66.370726h-2.481148l-19.228902-23.570912-13.646318 17.36804-24.811486-30.39407-28.533209 35.976655 7.443446 0.620287h-17.368041V531.998027z" fill="#FFFEFF" /><path d="M735.54926 554.328365m-7.443446 0a7.443446 7.443446 0 1 0 14.886892 0 7.443446 7.443446 0 1 0-14.886892 0Z" fill="#FFFEFF" /><path d="M180.392254 577.278989H274.675902v76.295321H180.392254z" fill="#348CDD" /><path d="M195.279145 591.545594v47.762111h65.750439v-47.762111H195.279145z m3.101436 3.721723h58.92728v39.698378H256.067287l-11.165169-14.266604-8.063733 10.544881-14.886892-17.988327-17.36804 21.71005h4.34201-10.544882v-39.698378z" fill="#FFFEFF" /><path d="M207.064601 608.913635m-4.34201 0a4.34201 4.34201 0 1 0 8.684021 0 4.34201 4.34201 0 1 0-8.684021 0Z" fill="#FFFEFF" /><path d="M694.610308 649.2323h64.509864v3.101436h-64.509864zM694.610308 663.498904h64.509864v3.101436h-64.509864zM694.610308 677.145222h52.724408v3.101436h-52.724408zM694.610308 691.411827h45.901249v3.101435h-45.901249zM694.610308 705.678431h45.901249v3.101436h-45.901249zM188.455987 667.840915h64.509864v3.101435H188.455987zM188.455987 682.107519h64.509864v3.101436H188.455987zM188.455987 695.753837h52.724408v3.101435h-52.724408zM188.455987 710.020441h45.901249v3.101436h-45.901249zM188.455987 724.287046h45.901249v3.101436h-45.901249zM778.349074 649.2323h64.509864v3.101436h-64.509864zM778.349074 663.498904h64.509864v3.101436h-64.509864zM778.349074 677.145222h52.724408v3.101436h-52.724408zM778.349074 691.411827h45.90125v3.101435h-45.90125zM778.349074 705.678431h45.90125v3.101436h-45.90125z" fill="#FFFEFF" /><path d="M746.714429 728.629056h55.205557v13.02603h-55.205557zM187.215412 747.857958h55.205557v13.02603h-55.205557zM659.874227 479.273619h215.859931v16.747753h-215.859931zM162.403926 561.151523h120.335709v16.747754H162.403926z" fill="#FEBD49" /></svg>